<?xml version="1.0" encoding="utf-8"?>
<!-- Generator: Adobe Illustrator 25.0.0, SVG Export Plug-In . SVG Version: 6.00 Build 0)  -->
<svg version="1.1" id="Calque_1" xmlns:sketch="http://www.bohemiancoding.com/sketch/ns"
	 xmlns="http://www.w3.org/2000/svg" xmlns:xlink="http://www.w3.org/1999/xlink" x="0px" y="0px" viewBox="0 0 800 800"
	 style="enable-background:new 0 0 800 800;" xml:space="preserve">
<style type="text/css">
	.st0{fill-rule:evenodd;clip-rule:evenodd;fill:#FFFFFF;}
</style>
<g id="SVGRepo_iconCarrier">
	<desc>Created with Sketch Beta.</desc>
	<g id="Page-1" sketch:type="MSPage">
		<g id="Icon-Set" transform="translate(-360.000000, -255.000000)" sketch:type="MSLayerGroup">
			<path id="comment-5" sketch:type="MSShapeGroup" class="st0" d="M1110,805c0,36.6-38.2,75-75,75H835l-75,100l-75-100H485
				c-36.8,0-75-38.4-75-75V380c0-36.6,38.2-75,75-75h550c36.8,0,75,38.4,75,75V805L1110,805z M1026.7,255H493.3
				C419.7,255,360,314.3,360,387.4v422.3c0,73.1,51.4,120.3,125,120.3h166l109,125l109-125h166c73.6,0,125-47.2,125-120.3V387.4
				C1160,314.3,1100.3,255,1026.7,255L1026.7,255z"/>
		</g>
	</g>
</g>
</svg>
