<?xml version="1.0" encoding="utf-8"?>
<!-- Generator: Adobe Illustrator 25.0.0, SVG Export Plug-In . SVG Version: 6.00 Build 0)  -->
<svg version="1.1" id="Calque_1" xmlns="http://www.w3.org/2000/svg" xmlns:xlink="http://www.w3.org/1999/xlink" x="0px" y="0px"
	 viewBox="0 0 800 800" style="enable-background:new 0 0 800 800;" xml:space="preserve">
<style type="text/css">
	.st0{fill:none;stroke:#FFFFFF;stroke-width:50;stroke-linecap:round;stroke-miterlimit:133.3333;}
</style>
<path class="st0" d="M500,400H400 M400,400H300 M400,400V300 M400,400v100"/>
<path class="st0" d="M733.3,400c0,157.1,0,235.7-48.8,284.5c-48.8,48.8-127.4,48.8-284.5,48.8c-157.1,0-235.7,0-284.5-48.8
	C66.7,635.7,66.7,557.1,66.7,400c0-157.1,0-235.7,48.8-284.5C164.3,66.7,242.9,66.7,400,66.7c157.1,0,235.7,0,284.5,48.8
	c32.5,32.5,43.3,78.1,47,151.2"/>
</svg>
