<?xml version="1.0" encoding="utf-8"?>
<!-- Generator: Adobe Illustrator 25.0.0, SVG Export Plug-In . SVG Version: 6.00 Build 0)  -->
<svg version="1.1" id="Calque_1" xmlns="http://www.w3.org/2000/svg" xmlns:xlink="http://www.w3.org/1999/xlink" x="0px" y="0px"
	 viewBox="0 0 100 100" style="enable-background:new 0 0 100 100;" xml:space="preserve">
<style type="text/css">
	.st0{fill-rule:evenodd;clip-rule:evenodd;fill:#FFFFFF;}
</style>
<g id="SVGRepo_iconCarrier">
	<path class="st0" d="M10.5,32.6c-2.2,4-2.2,8.7-2.2,18.3v6.3c0,16.3,0,24.4,4.9,29.4c4.9,5,12.7,5,28.5,5h16.7
		c15.7,0,23.6,0,28.5-5c4.9-5,4.9-13.2,4.9-29.4v-6.3c0-9.5,0-14.3-2.2-18.3c-2.2-4-6.1-6.4-14-11.3l-8.3-5.2
		C58.8,10.9,54.6,8.3,50,8.3s-8.8,2.6-17.1,7.8l-8.3,5.2C16.6,26.2,12.7,28.6,10.5,32.6z M46.9,75c0,1.7,1.4,3.1,3.1,3.1
		s3.1-1.4,3.1-3.1V62.5c0-1.7-1.4-3.1-3.1-3.1s-3.1,1.4-3.1,3.1V75z"/>
</g>
</svg>
