<?xml version="1.0" encoding="utf-8"?>
<!-- Generator: Adobe Illustrator 25.0.0, SVG Export Plug-In . SVG Version: 6.00 Build 0)  -->
<svg version="1.1" id="Calque_1" xmlns="http://www.w3.org/2000/svg" xmlns:xlink="http://www.w3.org/1999/xlink" x="0px" y="0px"
	 viewBox="0 0 500 500" style="enable-background:new 0 0 500 500;" xml:space="preserve">
<style type="text/css">
	.st0{fill:#FFFFFF;}
	.st1{fill:none;stroke:#FFFFFF;stroke-width:16;stroke-miterlimit:10;}
</style>
<g>
	<path class="st0" d="M235.2,152.6c-1.1-1.4-1.7-2.2-2.2-2.8c-13.6-16.9-36.4-18.3-51.6-2.8c-6.4,6.4-11.1,14.2-14.4,22.5
		c-8.6,21.4-10.3,43.6-6.9,66c1.4,9.4,0,17.5-6.1,24.7c-1.4,1.7-4.4,3.3-6.4,4.2c0,5.3,0.3,11.9,0.3,17.2c3.9-1.9,9.2-6.9,12.2-10.8
		c2.5-3.1,4.4-6.4,6.7-9.7c0.6,1.1,1.1,1.9,1.9,3.1c10.3,17.2,28.9,22.8,46.9,14.7c10-4.4,17.5-12.2,23-21.6
		c0.6-1.1,1.4-1.9,2.2-3.3c10.5-23,14.4-74.9-1.1-95.5L235.2,152.6z M229.4,241.4c-2.2,6.4-5,12.5-10.3,17.5
		c-8.6,8-17.8,6.7-23.6-3.3c-4.2-6.9-5.5-15-6.4-22.8c-0.6-5.8-0.6-11.7-0.8-16.1c0.8-13.3,1.1-25.5,5.3-36.9
		c1.7-4.4,3.9-9.2,6.7-13c8.6-11.1,22.8-9.4,29.1,2.8c3.6,6.9,4.7,14.4,5.3,22.2C235.8,208.4,234.9,225.3,229.4,241.4z"/>
</g>
<path class="st0" d="M329.5,154.5c-1.1-1.4-1.7-2.2-2.2-2.8c-13.6-16.9-36.4-18.3-51.6-2.8c-6.4,6.4-11.1,14.2-14.4,22.5
	c-8.6,21.4-10.3,43.6-6.9,66c1.4,9.4,0,17.5-6.1,24.7c-1.4,1.7-3.1,3.1-5,3.9c0,5.3,0.3,10.3,0.3,15.5c3.9-1.9,7.5-5,10.8-8.9
	c2.5-3.1,4.4-6.4,6.7-9.7c0.6,1.1,1.1,1.9,1.9,3.1c10.3,17.2,28.9,22.8,46.9,14.7c10-4.4,17.5-12.2,23-21.6c0.6-1.1,1.4-1.9,2.2-3.3
	c10.5-23,14.4-74.9-1.1-95.5L329.5,154.5z M323.7,243.3c-2.2,6.4-5,12.5-10.3,17.5c-8.6,8-17.8,6.7-23.6-3.3
	c-4.2-6.9-5.5-15-6.4-22.8c-0.6-5.8-0.6-11.7-0.8-16.1c0.8-13.3,1.1-25.5,5.3-36.9c1.7-4.4,3.9-9.2,6.7-13
	c8.6-11.1,22.8-9.4,29.1,2.8c3.6,6.9,4.7,14.4,5.3,22.2C330.1,210.3,329.5,227.2,323.7,243.3z"/>
<path class="st0" d="M159.7,306.3c0,0,55.5,146.2,173.2,24.4C230.8,409.3,159.7,306.3,159.7,306.3z"/>
<path class="st1" d="M338.5,442.8h-177c-57.6,0-104.3-46.7-104.3-104.3v-177c0-57.6,46.7-104.3,104.3-104.3h177
	c57.6,0,104.3,46.7,104.3,104.3v177C442.8,396.1,396.1,442.8,338.5,442.8z"/>
</svg>
