<?xml version="1.0" encoding="utf-8"?>
<!-- Generator: Adobe Illustrator 25.0.0, SVG Export Plug-In . SVG Version: 6.00 Build 0)  -->
<svg version="1.1" id="Calque_1" xmlns="http://www.w3.org/2000/svg" xmlns:xlink="http://www.w3.org/1999/xlink" x="0px" y="0px"
	 viewBox="0 0 800 800" style="enable-background:new 0 0 800 800;" xml:space="preserve">
<style type="text/css">
	.st0{fill:#FFFFFF;}
</style>
<path class="st0" d="M400.2,763.2c-20.4,0-39.1-5.7-55.8-16.9C252.5,700.5,0,527.5,0,313C0,165.9,119.7,46.1,266.8,46.1
	c47.2,0,92.9,12.3,133.4,35.8c40.5-23.5,86.2-35.8,133.4-35.8c147.1,0,266.8,119.7,266.8,266.8c0,214.5-252.5,387.6-344.4,433.3
	C439.3,757.5,420.6,763.2,400.2,763.2z M266.8,112.9c-110.4,0-200.1,89.8-200.1,200.1c0,91.5,62.9,175.8,115.7,230.3
	c67.2,69.5,146.3,121.1,193.6,144.2l4.8,2.9c11.8,8.4,27,8.4,38.8,0l4.8-2.9c47.4-23.2,126.5-74.8,193.6-144.2
	c52.8-54.6,115.7-138.8,115.7-230.3c0-110.4-89.8-200.1-200.1-200.1c-41.1,0-80.5,12.5-114.3,36l-19,13.3l-19.1-13.3
	C347.4,125.3,307.8,112.9,266.8,112.9z"/>
</svg>
