<?xml version="1.0" encoding="utf-8"?>
<!-- Generator: Adobe Illustrator 25.0.0, SVG Export Plug-In . SVG Version: 6.00 Build 0)  -->
<svg version="1.1" id="Calque_1" xmlns="http://www.w3.org/2000/svg" xmlns:xlink="http://www.w3.org/1999/xlink" x="0px" y="0px"
	 viewBox="0 0 800 800" style="enable-background:new 0 0 800 800;" xml:space="preserve">
<style type="text/css">
	.st0{fill:none;stroke:#FFFFFF;stroke-width:50;stroke-linecap:round;stroke-miterlimit:133.3333;}
	.st1{fill:none;stroke:#FFFFFF;stroke-width:50;stroke-miterlimit:133.3333;}
	.st2{fill:#FFFFFF;}
</style>
<path class="st0" d="M400,733.3h333.3"/>
<path class="st1" d="M400,300c55.2,0,100,44.8,100,100s-44.8,100-100,100s-100-44.8-100-100S344.8,300,400,300z"/>
<path class="st2" d="M650,400c0,18.4-14.9,33.3-33.3,33.3s-33.3-14.9-33.3-33.3c0-18.4,14.9-33.3,33.3-33.3S650,381.6,650,400z"/>
<path class="st2" d="M216.7,400c0,18.4-14.9,33.3-33.3,33.3S150,418.4,150,400c0-18.4,14.9-33.3,33.3-33.3S216.7,381.6,216.7,400z"
	/>
<path class="st2" d="M400,150c18.4,0,33.3,14.9,33.3,33.3s-14.9,33.3-33.3,33.3c-18.4,0-33.3-14.9-33.3-33.3S381.6,150,400,150z"/>
<path class="st2" d="M400,583.3c18.4,0,33.3,14.9,33.3,33.3S418.4,650,400,650c-18.4,0-33.3-14.9-33.3-33.3S381.6,583.3,400,583.3z"
	/>
<path class="st0" d="M233.3,111.3c49-28.4,106-44.6,166.7-44.6c184.1,0,333.3,149.2,333.3,333.3c0,184.1-149.2,333.3-333.3,333.3
	C215.9,733.3,66.7,584.1,66.7,400c0-60.7,16.2-117.6,44.6-166.7"/>
</svg>
