<?xml version="1.0" encoding="utf-8"?>
<!-- Generator: Adobe Illustrator 25.0.0, SVG Export Plug-In . SVG Version: 6.00 Build 0)  -->
<svg version="1.1" id="Calque_1" xmlns:sketch="http://www.bohemiancoding.com/sketch/ns"
	 xmlns="http://www.w3.org/2000/svg" xmlns:xlink="http://www.w3.org/1999/xlink" x="0px" y="0px" viewBox="0 0 800 800"
	 style="enable-background:new 0 0 800 800;" xml:space="preserve">
<style type="text/css">
	.st0{fill-rule:evenodd;clip-rule:evenodd;fill:#FFFFFF;}
</style>
<desc>Created with Sketch Beta.</desc>
<g id="Page-1" sketch:type="MSPage">
	<g id="Icon-Set" transform="translate(-519.000000, -931.000000)" sketch:type="MSLayerGroup">
		<path id="arrow-bottom" sketch:type="MSShapeGroup" class="st0" d="M1169,1031h-75v50h75c27.6,0,50,22.4,50,50v500
			c0,27.6-22.4,50-50,50H669c-27.6,0-50-22.4-50-50v-500c0-27.6,22.4-50,50-50h75v-50h-75c-55.2,0-100,44.8-100,100v500
			c0,55.2,44.8,100,100,100h500c55.2,0,100-44.8,100-100v-500C1269,1075.8,1224.2,1031,1169,1031L1169,1031z M727.6,1399.9
			l172.5,172.5c5.2,5.2,12.2,7.4,18.9,7.1c6.8,0.4,13.7-1.9,18.9-7.1l172.5-172.5c9.8-9.8,9.8-25.6,0-35.4c-9.7-9.8-25.6-9.8-35.4,0
			L944,1495.6V956c0-13.8-11.2-25-25-25c-13.8,0-25,11.2-25,25v539.6l-131.1-131.1c-9.8-9.8-25.6-9.8-35.4,0
			C717.8,1374.3,717.8,1390.2,727.6,1399.9L727.6,1399.9z"/>
	</g>
</g>
</svg>
