<?xml version="1.0" encoding="utf-8"?>
<!-- Generator: Adobe Illustrator 25.0.0, SVG Export Plug-In . SVG Version: 6.00 Build 0)  -->
<svg version="1.1" id="Calque_1" xmlns="http://www.w3.org/2000/svg" xmlns:xlink="http://www.w3.org/1999/xlink" x="0px" y="0px"
	 viewBox="0 0 800 800" style="enable-background:new 0 0 800 800;" xml:space="preserve">
<style type="text/css">
	.st0{fill:#FFFFFF;}
</style>
<path class="st0" d="M400,93.1c19.8,0,35.9-16.1,35.9-35.9S419.8,21.3,400,21.3V93.1z M771,392.3c0-19.8-16.1-35.9-35.9-35.9
	c-19.8,0-35.9,16.1-35.9,35.9H771z M735.1,93.1c19.8,0,35.9-16.1,35.9-35.9s-16.1-35.9-35.9-35.9V93.1z M539.4,21.3
	c-19.8,0-35.9,16.1-35.9,35.9s16.1,35.9,35.9,35.9V21.3z M771,57.2c0-19.8-16.1-35.9-35.9-35.9c-19.8,0-35.9,16.1-35.9,35.9H771z
	 M699.2,255.4c0,19.8,16.1,35.9,35.9,35.9c19.8,0,35.9-16.1,35.9-35.9H699.2z M760.5,82.5c14-14,14-36.8,0-50.8
	c-14-14-36.8-14-50.8,0L760.5,82.5z M374.6,366.9c-14,14-14,36.8,0,50.8c14,14,36.8,14,50.8,0L374.6,366.9z M400,21.3H256.4v71.8
	H400V21.3z M256.4,21.3C130.8,21.3,29,123.1,29,248.6h71.8c0-85.9,69.7-155.6,155.6-155.6V21.3z M29,248.6v287.2h71.8V248.6H29z
	 M29,535.9c0,125.6,101.8,227.4,227.4,227.4v-71.8c-85.9,0-155.6-69.7-155.6-155.6H29z M256.4,763.3h287.2v-71.8H256.4V763.3z
	 M543.6,763.3c125.6,0,227.4-101.8,227.4-227.4h-71.8c0,85.9-69.7,155.6-155.6,155.6V763.3z M771,535.9V392.3h-71.8v143.6H771z
	 M735.1,21.3H539.4v71.8h195.7V21.3z M699.2,57.2v198.2H771V57.2H699.2z M709.7,31.8L374.6,366.9l50.8,50.8L760.5,82.5L709.7,31.8z"
	/>
</svg>
